<?xml version="1.0" encoding="iso-8859-1"?>
<!-- Generator: Adobe Illustrator 22.1.0, SVG Export Plug-In . SVG Version: 6.00 Build 0)  -->
<svg xmlns="http://www.w3.org/2000/svg" xmlns:xlink="http://www.w3.org/1999/xlink" version="1.1" id="Layer_1_1_" x="0px" y="0px" viewBox="0 0 64 64" style="enable-background:new 0 0 64 64;" xml:space="preserve" width="512" height="512">
<linearGradient id="SVGID_1_" gradientUnits="userSpaceOnUse" x1="32" y1="63" x2="32" y2="1.0014">
	<stop offset="0" style="stop-color:#9F2FFF"/>
	<stop offset="1" style="stop-color:#0BB1D3"/>
</linearGradient>
<path style="fill:url(#SVGID_1_);" d="M44,45h-3v-8.499c0-1.93-1.57-3.5-3.499-3.5L36,33c-1.103,0-2,0.897-2,2v4  c0,1.565-0.748,3.061-2,4c-0.859,0.645-1.925,1-3,1h-4v-2H15v2H1v16h14v2h10v-1.234l1.586,0.952c1.399,0.839,3,1.282,4.63,1.282H38  h2h4c1.654,0,3-1.346,3-3c0-0.771-0.301-1.468-0.78-2c0.48-0.532,0.78-1.229,0.78-2s-0.301-1.468-0.78-2  c0.48-0.532,0.78-1.229,0.78-2s-0.301-1.468-0.78-2c0.48-0.532,0.78-1.229,0.78-2C47,46.346,45.654,45,44,45z M45,48  c0,0.552-0.449,1-1,1h-6c-0.551,0-1-0.448-1-1s0.449-1,1-1h6C44.551,47,45,47.448,45,48z M45,52c0,0.552-0.449,1-1,1h-6  c-0.551,0-1-0.448-1-1s0.449-1,1-1h6C44.551,51,45,51.448,45,52z M45,56c0,0.552-0.449,1-1,1h-6c-0.551,0-1-0.448-1-1s0.449-1,1-1h6  C44.551,55,45,55.448,45,56z M3,58V46h12v12H3z M23,60h-6V44h2v14.001h2V44h2V60z M27.615,60.003L25,58.434V46h4  c1.505,0,2.997-0.497,4.2-1.4c1.753-1.314,2.8-3.408,2.8-5.6v-4l1.501,0.001c0.827,0,1.499,0.673,1.499,1.5V45h-1  c-1.654,0-3,1.346-3,3c0,0.771,0.301,1.468,0.78,2c-0.48,0.532-0.78,1.229-0.78,2s0.301,1.468,0.78,2c-0.48,0.532-0.78,1.229-0.78,2  s0.301,1.468,0.78,2c-0.48,0.532-0.78,1.229-0.78,2c0,0.352,0.072,0.686,0.184,1h-3.969C29.948,61,28.703,60.655,27.615,60.003z   M44,61h-4h-2c-0.551,0-1-0.448-1-1s0.449-1,1-1h6c0.551,0,1,0.448,1,1S44.551,61,44,61z M56,6h-1.952  c-0.503-1.012-1.187-1.937-2.046-2.706c-1.904-1.705-4.463-2.521-7.025-2.237C41.941,1.393,39.289,3.34,37.946,6H34  c-3.86,0-7,3.141-7,7v10c0,3.859,3.14,7,7,7h9v4.868L50.303,30H56c3.86,0,7-3.141,7-7V13C63,9.141,59.86,6,56,6z M39.088,8.871  c0.472-3.036,3.042-5.486,6.108-5.826C45.469,3.015,45.74,3,46.008,3c1.729,0,3.359,0.619,4.66,1.783C52.15,6.11,53,8.012,53,10  c0,2.222-1.024,4.262-2.812,5.6C49.444,16.158,49,17.049,49,17.982V19h-2v-6.184c1.161-0.414,2-1.514,2-2.816c0-1.654-1.346-3-3-3  s-3,1.346-3,3c0,1.302,0.839,2.402,2,2.816V19h-2v-1.02c0-0.932-0.446-1.823-1.193-2.384C39.727,14.037,38.685,11.461,39.088,8.871z   M43,21h6v1c0,0.552-0.449,1-1,1h-4c-0.551,0-1-0.448-1-1V21z M45,10c0-0.552,0.449-1,1-1s1,0.448,1,1s-0.449,1-1,1S45,10.552,45,10  z M61,23c0,2.757-2.243,5-5,5h-6.303L45,31.132V28H34c-2.757,0-5-2.243-5-5V13c0-2.757,2.243-5,5-5h3.225  c-0.042,0.187-0.084,0.374-0.113,0.564c-0.517,3.321,0.822,6.629,3.495,8.632C40.856,17.384,41,17.67,41,17.98V19h-2v2h2v1  c0,1.654,1.346,3,3,3h4c1.654,0,3-1.346,3-3v-1h2v-2h-2v-1.018c0-0.308,0.146-0.601,0.388-0.782C53.684,15.482,55,12.857,55,10  c0-0.679-0.082-1.349-0.231-2H56c2.757,0,5,2.243,5,5V23z"/>
</svg>
