<?xml version="1.0" encoding="utf-8"?>
<!-- Generator: Adobe Illustrator 21.0.0, SVG Export Plug-In . SVG Version: 6.00 Build 0)  -->
<svg version="1.1" id="Layer_1" xmlns="http://www.w3.org/2000/svg" xmlns:xlink="http://www.w3.org/1999/xlink" x="0px" y="0px"
	 viewBox="0 0 1000 1000" style="enable-background:new 0 0 1000 1000;" xml:space="preserve">
<style type="text/css">
	.st0{fill:#131211;}
	.st1{fill:url(#SVGID_1_);}
	.st2{fill:#FFFFFF;}
	.st3{fill:url(#SVGID_2_);}
	.st4{fill:url(#SVGID_3_);}
</style>
<rect x="1020" y="-1020" width="1000" height="1000"/>
<g>
	<g>
		<path class="st0" d="M439.6-530.8c2.1-1.2,4.5-1.8,7.3-1.8c4.1,0,7.3,1.2,9.7,3.7c2.3,2.5,3.5,6,3.5,10.6v23.9h-8.7v-21.2
			c0-3-0.7-5.2-2-6.8c-1.3-1.6-3.2-2.3-5.6-2.3c-2.4,0-4.3,0.8-5.8,2.4c-1.5,1.6-2.2,3.9-2.2,6.9v21.1h-8.7v-21.3
			c0-2.9-0.7-5.2-2-6.7c-1.3-1.6-3.2-2.3-5.6-2.3s-4.3,0.8-5.8,2.5c-1.5,1.7-2.2,3.9-2.2,6.9v21H403v-37.5h8.7v5.7
			c0.6-0.9,1.3-1.7,2-2.4c0.7-0.8,1.5-1.5,2.4-2.1c0.9-0.6,2-1.1,3.1-1.5c1.2-0.4,2.4-0.5,3.9-0.5c2.7,0,5,0.6,6.8,1.8
			c1.9,1.2,3.3,2.8,4.3,4.8C435.7-528,437.5-529.6,439.6-530.8z"/>
		<path class="st0" d="M495-531.8h8.7v37.5H495v-5.9c-1.2,1.8-2.8,3.4-4.6,4.7c-1.8,1.3-4.2,2-7.1,2c-4.2,0-7.5-1.3-9.8-3.9
			c-2.3-2.6-3.5-6.1-3.5-10.5v-23.8h8.7v21.2c0,2.9,0.7,5.2,2.1,6.8c1.4,1.6,3.3,2.4,5.9,2.4c2.5,0,4.5-0.8,6-2.4
			c1.5-1.6,2.3-3.9,2.3-6.8V-531.8z"/>
		<path class="st0" d="M523.1-494.4h-8.7v-37.5h8.7v5.9c0.6-0.9,1.3-1.8,2-2.5c0.7-0.8,1.6-1.5,2.5-2.1c1-0.6,2-1.1,3.2-1.5
			c1.2-0.4,2.5-0.5,3.9-0.5c4.2,0,7.5,1.3,9.8,3.9c2.3,2.6,3.5,6.1,3.5,10.5v23.8h-8.7v-21.2c0-2.9-0.7-5.2-2.1-6.8
			c-1.4-1.6-3.3-2.4-5.9-2.4c-2.5,0-4.5,0.8-6,2.4c-1.5,1.6-2.3,3.9-2.3,6.8V-494.4z"/>
		<path class="st0" d="M568.8-506.1c0,1.7,0.4,2.9,1.2,3.6c0.8,0.7,1.9,1.1,3.4,1.1c1.8,0,3.6-0.4,5.3-1.3v7
			c-1.1,0.6-2.2,1.1-3.5,1.4c-1.2,0.3-2.7,0.5-4.3,0.5c-1.6,0-3-0.2-4.3-0.6c-1.3-0.4-2.5-1-3.5-1.8s-1.7-2-2.3-3.4
			c-0.5-1.4-0.8-3.1-0.8-5.2v-19.8h-4.8v-7.3h4.8v-10.3h8.7v10.3h10.1v7.3h-10.1V-506.1z"/>
		<path class="st0" d="M622.8-505.5c-1,2.4-2.4,4.4-4.2,6.2c-1.8,1.8-3.9,3.2-6.4,4.2s-5.1,1.6-8,1.6c-2.8,0-5.5-0.5-7.9-1.5
			s-4.5-2.4-6.3-4.2c-1.8-1.8-3.2-3.8-4.2-6.2c-1-2.3-1.5-4.9-1.5-7.6c0-2.7,0.5-5.2,1.5-7.6c1-2.4,2.4-4.5,4.2-6.2
			c1.8-1.8,3.9-3.2,6.3-4.2c2.4-1,5.1-1.6,8-1.6c2.9,0,5.5,0.5,8,1.5c2.4,1,4.5,2.4,6.3,4.2c1.8,1.8,3.2,3.8,4.2,6.2
			c1,2.4,1.5,4.9,1.5,7.6C624.3-510.4,623.8-507.9,622.8-505.5z M614.8-517.7c-0.6-1.5-1.4-2.8-2.4-3.9c-1-1.1-2.2-2-3.6-2.6
			c-1.4-0.6-2.9-1-4.6-1c-1.7,0-3.2,0.3-4.6,1c-1.4,0.6-2.6,1.5-3.6,2.6c-1,1.1-1.7,2.4-2.3,3.8c-0.5,1.4-0.8,3-0.8,4.6
			s0.3,3.2,0.8,4.7c0.6,1.5,1.4,2.8,2.4,3.9c1,1.1,2.2,2,3.6,2.6c1.4,0.6,2.9,1,4.6,1c1.7,0,3.3-0.3,4.7-1c1.4-0.6,2.6-1.5,3.6-2.6
			c1-1.1,1.7-2.4,2.3-3.8c0.5-1.4,0.8-3,0.8-4.6S615.4-516.2,614.8-517.7z"/>
		<path class="st0" d="M657.9-500c-0.7,1.3-1.6,2.5-2.8,3.4c-1.2,0.9-2.5,1.7-4.1,2.2c-1.6,0.5-3.3,0.7-5.1,0.7
			c-2.6,0-5.3-0.5-8-1.5c-2.7-1-5.1-2.3-7.2-3.9l2.8-3.9c2,1.5,4.1,2.7,6.2,3.5c2.2,0.8,4.3,1.2,6.5,1.2c2.2,0,4-0.5,5.5-1.6
			c1.4-1,2.1-2.5,2.1-4.3v-0.1c0-0.9-0.3-1.7-0.7-2.3c-0.5-0.7-1.2-1.2-2-1.7c-0.9-0.5-1.8-0.9-2.9-1.3c-1.1-0.4-2.3-0.7-3.4-1.1
			c-1.4-0.4-2.8-0.9-4.3-1.4c-1.4-0.5-2.7-1.1-3.9-1.9c-1.2-0.8-2.1-1.7-2.8-2.8c-0.7-1.1-1.1-2.6-1.1-4.3v-0.1c0-1.6,0.3-3,0.9-4.3
			c0.6-1.3,1.5-2.4,2.6-3.3c1.1-0.9,2.4-1.6,4-2.1c1.5-0.5,3.2-0.7,5-0.7c2.3,0,4.6,0.4,6.9,1.1c2.3,0.7,4.4,1.7,6.3,2.9l-2.5,4.1
			c-1.7-1.1-3.5-1.9-5.4-2.6c-1.9-0.6-3.7-1-5.5-1c-2.2,0-3.9,0.5-5.2,1.5c-1.3,1-1.9,2.3-1.9,3.8v0.1c0,0.9,0.3,1.6,0.8,2.2
			c0.5,0.6,1.2,1.2,2.1,1.7c0.9,0.5,1.9,0.9,3,1.3c1.1,0.4,2.3,0.8,3.5,1.1c1.4,0.4,2.8,0.9,4.2,1.4c1.4,0.5,2.7,1.2,3.8,2
			c1.1,0.8,2,1.8,2.7,2.9c0.7,1.1,1,2.5,1,4.2v0.1C659-502.9,658.6-501.4,657.9-500z"/>
		<path class="st0" d="M703.6-505.3c-1,2.3-2.3,4.4-4,6.1c-1.7,1.7-3.7,3.1-6.1,4.2c-2.4,1-4.9,1.5-7.7,1.5c-2.7,0-5.3-0.5-7.6-1.5
			c-2.3-1-4.3-2.4-6-4.1c-1.7-1.7-3-3.7-4-6.1s-1.4-4.8-1.4-7.4c0-2.6,0.5-5.1,1.4-7.4c0.9-2.3,2.3-4.4,4-6.1
			c1.7-1.7,3.7-3.1,6.1-4.2c2.3-1,4.9-1.5,7.7-1.5c2.7,0,5.3,0.5,7.6,1.5c2.3,1,4.4,2.4,6.1,4.1c1.7,1.7,3,3.7,4,6.1
			c0.9,2.3,1.4,4.8,1.4,7.4C705.1-510.2,704.6-507.7,703.6-505.3z M698.4-518.2c-0.7-1.7-1.6-3.3-2.9-4.6c-1.2-1.3-2.7-2.3-4.3-3.1
			c-1.7-0.8-3.5-1.1-5.4-1.1c-2,0-3.8,0.4-5.5,1.1s-3.1,1.7-4.2,3c-1.2,1.3-2.1,2.8-2.7,4.5c-0.7,1.7-1,3.6-1,5.6c0,2,0.3,3.8,1,5.6
			c0.7,1.7,1.6,3.3,2.8,4.5c1.2,1.3,2.6,2.3,4.3,3s3.5,1.1,5.4,1.1c2,0,3.8-0.4,5.5-1.1c1.7-0.7,3.1-1.7,4.3-3
			c1.2-1.3,2.1-2.8,2.8-4.5c0.7-1.7,1-3.6,1-5.6C699.5-514.6,699.1-516.5,698.4-518.2z"/>
		<path class="st0" d="M734-530.9v4.7h-11.6v31.9H717v-31.9h-5v-4.8h5v-3.2c0-4,1-7.1,2.9-9.2c1.9-2.1,4.6-3.1,8.2-3.1
			c1.3,0,2.4,0.1,3.3,0.2c0.9,0.1,1.8,0.4,2.7,0.7v4.8c-1-0.3-1.9-0.5-2.7-0.7c-0.8-0.2-1.7-0.2-2.6-0.2c-4.3,0-6.4,2.6-6.4,7.8v3
			H734z"/>
		<path class="st0" d="M748.4-504.8c0,2.3,0.6,3.9,1.7,4.8c1.1,0.9,2.6,1.4,4.5,1.4c0.9,0,1.8-0.1,2.7-0.3c0.8-0.2,1.7-0.5,2.7-1
			v4.7c-0.9,0.5-2,0.9-3,1.2c-1.1,0.3-2.3,0.4-3.6,0.4c-1.5,0-2.8-0.2-4.1-0.6c-1.3-0.4-2.4-1-3.3-1.8c-0.9-0.8-1.6-1.9-2.2-3.2
			c-0.5-1.3-0.8-2.9-0.8-4.8v-22.1h-5.1v-4.8h5.1v-11.1h5.5v11.1H760v4.8h-11.6V-504.8z"/>
	</g>
	<linearGradient id="SVGID_1_" gradientUnits="userSpaceOnUse" x1="366.4642" y1="-475.2873" x2="239.8054" y2="-588.2533">
		<stop  offset="0" style="stop-color:#212E87"/>
		<stop  offset="1" style="stop-color:#AF2383"/>
	</linearGradient>
	<path class="st1" d="M366-500.4c-1-0.8-2.3-1.3-3.7-1.3c-0.1,0-0.2,0-0.2,0c-3.5,0-6.4,2.8-6.4,6.4c0,2,1,3.9,2.5,5v11.5
		l-21.6,12.5v-6.9c1.5-1.2,2.4-3,2.4-5c0-2-0.9-3.9-2.4-5c-1-0.8-2.3-1.3-3.7-1.3c-0.1,0-0.2,0-0.2,0c-3.5,0-6.4,2.8-6.4,6.4
		c0,2.1,1,3.9,2.5,5v20.6l37.4-21.6v-16c1.5-1.2,2.4-3,2.4-5C368.4-497.4,367.5-499.2,366-500.4z M336-478.3c0,1.9-1.5,3.5-3.4,3.5
		c-1.9,0-3.5-1.6-3.5-3.5c0-1.9,1.6-3.4,3.5-3.4C334.4-481.7,336-480.2,336-478.3z M365.5-495.4c0,1.9-1.5,3.5-3.4,3.5
		s-3.5-1.6-3.5-3.5c0-1.9,1.6-3.4,3.5-3.4S365.5-497.3,365.5-495.4z M366-587.3c-3.1,0-5.7,2.2-6.3,5.1c0,0,0,0,0,0L303-549.4
		l-63-36.4v43.2l63,36.4l55.1-31.9v25L303-481.2l-63-36.4v43.2l37.4,21.6v-20.6c1.5-1.2,2.4-3,2.4-5c0-3.5-2.8-6.4-6.4-6.4
		c-0.1,0-0.2,0-0.2,0c-1.4,0-2.7,0.5-3.7,1.3c-1.5,1.1-2.5,3-2.5,5c0,2.1,1,3.9,2.5,5v6.9l-21.6-12.5v-25L303-472l63-36.4v-43.2
		l-63,36.4l-55.1-31.9v-25l55.1,31.9l60.3-34.8c0.8,0.4,1.7,0.6,2.7,0.6c3.5,0,6.4-2.8,6.4-6.4C372.4-584.5,369.5-587.3,366-587.3z
		 M273.5-481.7c1.9,0,3.4,1.5,3.4,3.4c0,1.9-1.5,3.5-3.4,3.5c-1.9,0-3.5-1.6-3.5-3.5C270-480.2,271.6-481.7,273.5-481.7z M366-577.5
		c-1.9,0-3.5-1.6-3.5-3.5c0-1.9,1.6-3.5,3.5-3.5s3.4,1.6,3.4,3.5C369.4-579,367.9-577.5,366-577.5z"/>
</g>
<g>
	<g>
		<path class="st2" d="M1459.6-530.8c2.1-1.2,4.5-1.8,7.3-1.8c4.1,0,7.3,1.2,9.7,3.7c2.3,2.5,3.5,6,3.5,10.6v23.9h-8.7v-21.2
			c0-3-0.7-5.2-2-6.8c-1.3-1.6-3.2-2.3-5.6-2.3c-2.4,0-4.3,0.8-5.8,2.4s-2.2,3.9-2.2,6.9v21.1h-8.7v-21.3c0-2.9-0.7-5.2-2-6.7
			c-1.3-1.6-3.2-2.3-5.6-2.3s-4.3,0.8-5.8,2.5c-1.5,1.7-2.2,3.9-2.2,6.9v21h-8.7v-37.5h8.7v5.7c0.6-0.9,1.3-1.7,2-2.4
			c0.7-0.8,1.5-1.5,2.4-2.1c0.9-0.6,2-1.1,3.1-1.5c1.2-0.4,2.4-0.5,3.9-0.5c2.7,0,5,0.6,6.8,1.8c1.9,1.2,3.3,2.8,4.3,4.8
			C1455.7-528,1457.5-529.6,1459.6-530.8z"/>
		<path class="st2" d="M1515-531.8h8.7v37.5h-8.7v-5.9c-1.2,1.8-2.8,3.4-4.6,4.7c-1.8,1.3-4.2,2-7.1,2c-4.2,0-7.5-1.3-9.8-3.9
			c-2.3-2.6-3.5-6.1-3.5-10.5v-23.8h8.7v21.2c0,2.9,0.7,5.2,2.1,6.8c1.4,1.6,3.3,2.4,5.9,2.4c2.5,0,4.5-0.8,6-2.4
			c1.5-1.6,2.3-3.9,2.3-6.8V-531.8z"/>
		<path class="st2" d="M1543.1-494.4h-8.7v-37.5h8.7v5.9c0.6-0.9,1.3-1.8,2-2.5c0.7-0.8,1.6-1.5,2.5-2.1c1-0.6,2-1.1,3.2-1.5
			c1.2-0.4,2.5-0.5,3.9-0.5c4.2,0,7.5,1.3,9.8,3.9c2.3,2.6,3.5,6.1,3.5,10.5v23.8h-8.7v-21.2c0-2.9-0.7-5.2-2.1-6.8
			c-1.4-1.6-3.3-2.4-5.9-2.4c-2.5,0-4.5,0.8-6,2.4c-1.5,1.6-2.3,3.9-2.3,6.8V-494.4z"/>
		<path class="st2" d="M1588.8-506.1c0,1.7,0.4,2.9,1.2,3.6c0.8,0.7,1.9,1.1,3.4,1.1c1.8,0,3.6-0.4,5.3-1.3v7
			c-1.1,0.6-2.2,1.1-3.5,1.4c-1.2,0.3-2.7,0.5-4.3,0.5c-1.6,0-3-0.2-4.3-0.6c-1.3-0.4-2.5-1-3.5-1.8c-1-0.9-1.7-2-2.3-3.4
			c-0.5-1.4-0.8-3.1-0.8-5.2v-19.8h-4.8v-7.3h4.8v-10.3h8.7v10.3h10.1v7.3h-10.1V-506.1z"/>
		<path class="st2" d="M1642.8-505.5c-1,2.4-2.4,4.4-4.2,6.2c-1.8,1.8-3.9,3.2-6.4,4.2c-2.5,1-5.1,1.6-8,1.6c-2.8,0-5.5-0.5-7.9-1.5
			s-4.5-2.4-6.3-4.2c-1.8-1.8-3.2-3.8-4.2-6.2c-1-2.3-1.5-4.9-1.5-7.6c0-2.7,0.5-5.2,1.5-7.6c1-2.4,2.4-4.5,4.2-6.2
			c1.8-1.8,3.9-3.2,6.3-4.2c2.4-1,5.1-1.6,8-1.6s5.5,0.5,8,1.5c2.4,1,4.5,2.4,6.3,4.2c1.8,1.8,3.2,3.8,4.2,6.2
			c1,2.4,1.5,4.9,1.5,7.6C1644.3-510.4,1643.8-507.9,1642.8-505.5z M1634.8-517.7c-0.6-1.5-1.4-2.8-2.4-3.9c-1-1.1-2.2-2-3.6-2.6
			c-1.4-0.6-2.9-1-4.6-1c-1.7,0-3.2,0.3-4.6,1c-1.4,0.6-2.6,1.5-3.6,2.6c-1,1.1-1.7,2.4-2.3,3.8c-0.5,1.4-0.8,3-0.8,4.6
			s0.3,3.2,0.8,4.7c0.6,1.5,1.4,2.8,2.4,3.9c1,1.1,2.2,2,3.6,2.6c1.4,0.6,2.9,1,4.6,1c1.7,0,3.3-0.3,4.7-1c1.4-0.6,2.6-1.5,3.6-2.6
			c1-1.1,1.7-2.4,2.3-3.8c0.5-1.4,0.8-3,0.8-4.6S1635.4-516.2,1634.8-517.7z"/>
		<path class="st2" d="M1677.9-500c-0.7,1.3-1.6,2.5-2.8,3.4c-1.2,0.9-2.5,1.7-4.1,2.2c-1.6,0.5-3.3,0.7-5.1,0.7
			c-2.6,0-5.3-0.5-8-1.5c-2.7-1-5.1-2.3-7.2-3.9l2.8-3.9c2,1.5,4.1,2.7,6.2,3.5c2.2,0.8,4.3,1.2,6.5,1.2c2.2,0,4-0.5,5.5-1.6
			c1.4-1,2.1-2.5,2.1-4.3v-0.1c0-0.9-0.3-1.7-0.7-2.3c-0.5-0.7-1.2-1.2-2-1.7c-0.9-0.5-1.8-0.9-2.9-1.3c-1.1-0.4-2.3-0.7-3.4-1.1
			c-1.4-0.4-2.8-0.9-4.3-1.4c-1.4-0.5-2.7-1.1-3.9-1.9c-1.2-0.8-2.1-1.7-2.8-2.8c-0.7-1.1-1.1-2.6-1.1-4.3v-0.1c0-1.6,0.3-3,0.9-4.3
			c0.6-1.3,1.5-2.4,2.6-3.3c1.1-0.9,2.4-1.6,4-2.1c1.5-0.5,3.2-0.7,5-0.7c2.3,0,4.6,0.4,6.9,1.1c2.3,0.7,4.4,1.7,6.3,2.9l-2.5,4.1
			c-1.7-1.1-3.5-1.9-5.4-2.6c-1.9-0.6-3.7-1-5.5-1c-2.2,0-3.9,0.5-5.2,1.5c-1.3,1-1.9,2.3-1.9,3.8v0.1c0,0.9,0.3,1.6,0.8,2.2
			c0.5,0.6,1.2,1.2,2.1,1.7c0.9,0.5,1.9,0.9,3,1.3c1.1,0.4,2.3,0.8,3.5,1.1c1.4,0.4,2.8,0.9,4.2,1.4c1.4,0.5,2.7,1.2,3.8,2
			c1.1,0.8,2,1.8,2.7,2.9c0.7,1.1,1,2.5,1,4.2v0.1C1679-502.9,1678.6-501.4,1677.9-500z"/>
		<path class="st2" d="M1723.6-505.3c-1,2.3-2.3,4.4-4,6.1c-1.7,1.7-3.7,3.1-6.1,4.2c-2.4,1-4.9,1.5-7.7,1.5s-5.3-0.5-7.6-1.5
			c-2.3-1-4.3-2.4-6-4.1c-1.7-1.7-3-3.7-4-6.1c-0.9-2.3-1.4-4.8-1.4-7.4c0-2.6,0.5-5.1,1.4-7.4c0.9-2.3,2.3-4.4,4-6.1
			c1.7-1.7,3.7-3.1,6.1-4.2c2.3-1,4.9-1.5,7.7-1.5c2.7,0,5.3,0.5,7.6,1.5c2.3,1,4.4,2.4,6.1,4.1c1.7,1.7,3,3.7,4,6.1
			c0.9,2.3,1.4,4.8,1.4,7.4C1725.1-510.2,1724.6-507.7,1723.6-505.3z M1718.4-518.2c-0.7-1.7-1.6-3.3-2.9-4.6
			c-1.2-1.3-2.7-2.3-4.3-3.1c-1.7-0.8-3.5-1.1-5.4-1.1c-2,0-3.8,0.4-5.5,1.1s-3.1,1.7-4.2,3c-1.2,1.3-2.1,2.8-2.7,4.5
			c-0.7,1.7-1,3.6-1,5.6c0,2,0.3,3.8,1,5.6c0.7,1.7,1.6,3.3,2.8,4.5c1.2,1.3,2.6,2.3,4.3,3s3.5,1.1,5.4,1.1c2,0,3.8-0.4,5.5-1.1
			c1.7-0.7,3.1-1.7,4.3-3c1.2-1.3,2.1-2.8,2.8-4.5c0.7-1.7,1-3.6,1-5.6C1719.5-514.6,1719.1-516.5,1718.4-518.2z"/>
		<path class="st2" d="M1754-530.9v4.7h-11.6v31.9h-5.5v-31.9h-5v-4.8h5v-3.2c0-4,1-7.1,2.9-9.2c1.9-2.1,4.6-3.1,8.2-3.1
			c1.3,0,2.4,0.1,3.3,0.2c0.9,0.1,1.8,0.4,2.7,0.7v4.8c-1-0.3-1.9-0.5-2.7-0.7c-0.8-0.2-1.7-0.2-2.6-0.2c-4.3,0-6.4,2.6-6.4,7.8v3
			H1754z"/>
		<path class="st2" d="M1768.4-504.8c0,2.3,0.6,3.9,1.7,4.8c1.1,0.9,2.6,1.4,4.5,1.4c0.9,0,1.8-0.1,2.7-0.3c0.8-0.2,1.7-0.5,2.7-1
			v4.7c-0.9,0.5-2,0.9-3,1.2c-1.1,0.3-2.3,0.4-3.6,0.4c-1.5,0-2.8-0.2-4.1-0.6c-1.3-0.4-2.4-1-3.3-1.8c-0.9-0.8-1.6-1.9-2.2-3.2
			c-0.5-1.3-0.8-2.9-0.8-4.8v-22.1h-5.1v-4.8h5.1v-11.1h5.5v11.1h11.6v4.8h-11.6V-504.8z"/>
	</g>
	<linearGradient id="SVGID_2_" gradientUnits="userSpaceOnUse" x1="1386.4642" y1="-475.2873" x2="1259.8054" y2="-588.2533">
		<stop  offset="0" style="stop-color:#212E87"/>
		<stop  offset="1" style="stop-color:#AF2383"/>
	</linearGradient>
	<path class="st3" d="M1386-500.4c-1-0.8-2.3-1.3-3.7-1.3c-0.1,0-0.2,0-0.2,0c-3.5,0-6.4,2.8-6.4,6.4c0,2,1,3.9,2.5,5v11.5
		l-21.6,12.5v-6.9c1.5-1.2,2.4-3,2.4-5c0-2-0.9-3.9-2.4-5c-1-0.8-2.3-1.3-3.7-1.3c-0.1,0-0.2,0-0.2,0c-3.5,0-6.4,2.8-6.4,6.4
		c0,2.1,1,3.9,2.5,5v20.6l37.4-21.6v-16c1.5-1.2,2.4-3,2.4-5C1388.4-497.4,1387.5-499.2,1386-500.4z M1356-478.3
		c0,1.9-1.5,3.5-3.4,3.5c-1.9,0-3.5-1.6-3.5-3.5c0-1.9,1.6-3.4,3.5-3.4C1354.4-481.7,1356-480.2,1356-478.3z M1385.5-495.4
		c0,1.9-1.5,3.5-3.4,3.5c-1.9,0-3.5-1.6-3.5-3.5c0-1.9,1.6-3.4,3.5-3.4C1383.9-498.8,1385.5-497.3,1385.5-495.4z M1386-587.3
		c-3.1,0-5.7,2.2-6.3,5.1c0,0,0,0,0,0l-56.7,32.8l-63-36.4v43.2l63,36.4l55.1-31.9v25l-55.1,31.9l-63-36.4v43.2l37.4,21.6v-20.6
		c1.5-1.2,2.4-3,2.4-5c0-3.5-2.8-6.4-6.4-6.4c-0.1,0-0.2,0-0.2,0c-1.4,0-2.7,0.5-3.7,1.3c-1.5,1.1-2.5,3-2.5,5c0,2.1,1,3.9,2.5,5
		v6.9l-21.6-12.5v-25L1323-472l63-36.4v-43.2l-63,36.4l-55.1-31.9v-25l55.1,31.9l60.3-34.8c0.8,0.4,1.7,0.6,2.7,0.6
		c3.5,0,6.4-2.8,6.4-6.4C1392.4-584.5,1389.5-587.3,1386-587.3z M1293.5-481.7c1.9,0,3.4,1.5,3.4,3.4c0,1.9-1.5,3.5-3.4,3.5
		c-1.9,0-3.5-1.6-3.5-3.5C1290-480.2,1291.6-481.7,1293.5-481.7z M1386-577.5c-1.9,0-3.5-1.6-3.5-3.5c0-1.9,1.6-3.5,3.5-3.5
		c1.9,0,3.4,1.6,3.4,3.5C1389.4-579,1387.9-577.5,1386-577.5z"/>
</g>
<linearGradient id="SVGID_3_" gradientUnits="userSpaceOnUse" x1="732.8192" y1="672.7071" x2="243.5871" y2="236.3651">
	<stop  offset="0" style="stop-color:#222E84"/>
	<stop  offset="1" style="stop-color:#AF217F"/>
</linearGradient>
<path class="st4" d="M731,575.8c-4-3.2-8.8-5.2-14.3-5.2c-0.3-0.2-0.6-0.2-0.9-0.2c-13.7,0-24.8,11-24.8,24.7
	c0,7.9,3.8,15.1,9.6,19.5v44.3l-83.6,48.4v-26.8c5.8-4.6,9.4-11.6,9.4-19.5c0-7.9-3.7-14.9-9.4-19.3c-4-3.2-8.8-5.2-14.3-5.2
	c-0.3-0.2-0.6-0.2-0.9-0.2c-13.7,0-24.8,11-24.8,24.7c0,7.9,3.8,15.1,9.6,19.5V760L731,676.6v-62c5.8-4.6,9.4-11.6,9.4-19.5
	C740.4,587.2,736.8,580.2,731,575.8z M615,661c0,7.3-5.9,13.4-13.2,13.4s-13.4-6.1-13.4-13.4c0-7.3,6.1-13.2,13.4-13.2
	S615,653.7,615,661z M729,595.1c0,7.3-5.9,13.4-13.2,13.4s-13.4-6.1-13.4-13.4c0-7.3,6.1-13.2,13.4-13.2S729,587.8,729,595.1z
	 M731,240c-12,0-21.9,8.4-24.4,19.6c0,0.2,0,0.2,0,0.2l-219,126.5L244.3,245.8v167l243.3,140.5l212.9-123V527l-212.9,123
	L244.3,509.5v167L388.8,760v-79.5c5.8-4.6,9.4-11.6,9.4-19.5c0-13.7-11-24.7-24.7-24.7c-0.3,0-0.6,0-0.9,0.2c-5.3,0-10.4,2-14.3,5.2
	c-5.8,4.3-9.6,11.4-9.6,19.3c0,7.9,3.8,15.1,9.6,19.5v26.8l-83.6-48.4v-96.7l212.9,123L731,544.7v-167L487.7,518.2l-212.9-123v-96.7
	l212.9,123l233-134.6c3.2,1.7,6.7,2.4,10.4,2.4c13.7,0,24.7-11,24.7-24.7C755.7,251,744.7,240,731,240z M373.6,647.8
	c7.3,0,13.2,5.9,13.2,13.2c0,7.3-5.9,13.4-13.2,13.4c-7.3,0-13.4-6.1-13.4-13.4C360.2,653.7,366.3,647.8,373.6,647.8z M731,278.1
	c-7.3,0-13.4-6.1-13.4-13.4c0-7.3,6.1-13.4,13.4-13.4c7.3,0,13.2,6.1,13.2,13.4C744.2,272,738.3,278.1,731,278.1z"/>
</svg>
