<svg xmlns="http://www.w3.org/2000/svg" xmlns:xlink="http://www.w3.org/1999/xlink" viewBox="0 0 520 134.62"><defs><style>.cls-1{fill:#fff;}.cls-2{fill:url(#linear-gradient);}</style><linearGradient id="linear-gradient" x1="126.46" y1="112.02" x2="-0.19" y2="-0.94" gradientUnits="userSpaceOnUse"><stop offset="0" stop-color="#212e87"/><stop offset="1" stop-color="#af2383"/></linearGradient></defs><title>Asset 2</title><g id="Layer_2" data-name="Layer 2"><g id="Layer_1-2" data-name="Layer 1"><path class="cls-1" d="M199.58,56.51a14.18,14.18,0,0,1,7.35-1.82q6.17,0,9.65,3.73T220.06,69V92.93H211.4V71.69q0-4.46-2-6.79a6.92,6.92,0,0,0-5.58-2.34,7.52,7.52,0,0,0-5.76,2.37q-2.22,2.37-2.23,6.9v21.1h-8.66V71.62q0-4.39-2-6.73a6.91,6.91,0,0,0-5.58-2.34A7.36,7.36,0,0,0,173.86,65a10,10,0,0,0-2.19,6.86v21H163V55.46h8.66V61.2a24.27,24.27,0,0,1,2-2.43,13.74,13.74,0,0,1,2.45-2.08,11.75,11.75,0,0,1,3.12-1.47,13.06,13.06,0,0,1,3.87-.54,12.28,12.28,0,0,1,6.84,1.82,12.07,12.07,0,0,1,4.29,4.84A18.53,18.53,0,0,1,199.58,56.51Z"/><path class="cls-1" d="M255,55.46h8.66V92.93H255V87a18.4,18.4,0,0,1-4.6,4.69,11.9,11.9,0,0,1-7.08,2q-6.37,0-9.84-3.9T230,79.3V55.46h8.66V76.7q0,4.39,2.08,6.76a7.4,7.4,0,0,0,5.87,2.37,8,8,0,0,0,6-2.44A9.51,9.51,0,0,0,255,76.56Z"/><path class="cls-1" d="M283.07,92.93h-8.66V55.46h8.66v5.88a20.63,20.63,0,0,1,2-2.54,13.11,13.11,0,0,1,5.73-3.58,13.25,13.25,0,0,1,3.93-.54q6.37,0,9.84,3.9t3.47,10.5V92.93h-8.66V71.69q0-4.39-2.08-6.76a7.39,7.39,0,0,0-5.87-2.37,8,8,0,0,0-6,2.44,9.52,9.52,0,0,0-2.32,6.83Z"/><path class="cls-1" d="M328.84,81.21A4.67,4.67,0,0,0,330,84.8a4.85,4.85,0,0,0,3.4,1.1,11.72,11.72,0,0,0,5.32-1.28v7a14.93,14.93,0,0,1-3.48,1.42,16.48,16.48,0,0,1-4.26.5A15.78,15.78,0,0,1,326.7,93a8.86,8.86,0,0,1-3.47-1.85A8.19,8.19,0,0,1,321,87.77a15,15,0,0,1-.79-5.23V62.77h-4.75V55.46h4.75V45.17h8.65V55.46h10.08v7.31H328.84Z"/><path class="cls-1" d="M382.8,81.79a19.45,19.45,0,0,1-10.54,10.43,21.35,21.35,0,0,1-15.93,0,19.5,19.5,0,0,1-10.43-25.55,19.58,19.58,0,0,1,4.18-6.24,19.89,19.89,0,0,1,6.32-4.22,20.1,20.1,0,0,1,8-1.56,20.53,20.53,0,0,1,8,1.52,19.46,19.46,0,0,1,6.31,4.19,19.17,19.17,0,0,1,4.15,6.21,19.41,19.41,0,0,1,1.49,7.59A19,19,0,0,1,382.8,81.79Zm-8-12.13a12.24,12.24,0,0,0-2.36-3.87,11,11,0,0,0-3.6-2.63,11.1,11.1,0,0,0-12.8,2.59,11.25,11.25,0,0,0-2.26,3.8A13.7,13.7,0,0,0,353,74.2a13.18,13.18,0,0,0,.85,4.72,11.66,11.66,0,0,0,2.36,3.87,11.32,11.32,0,0,0,3.6,2.59,10.76,10.76,0,0,0,4.55,1,11.07,11.07,0,0,0,4.69-1,10.89,10.89,0,0,0,3.56-2.59,11.19,11.19,0,0,0,2.26-3.8,13.7,13.7,0,0,0,.78-4.65A13,13,0,0,0,374.83,69.65Z"/><path class="cls-1" d="M417.93,87.29a10.61,10.61,0,0,1-2.77,3.44A12.16,12.16,0,0,1,411,92.89a17.11,17.11,0,0,1-5.14.74,23.58,23.58,0,0,1-8-1.46,24.81,24.81,0,0,1-7.16-3.94l2.76-3.9a24.34,24.34,0,0,0,6.21,3.48,18.42,18.42,0,0,0,6.49,1.2,9,9,0,0,0,5.46-1.56,5,5,0,0,0,2.13-4.26v-.14a3.8,3.8,0,0,0-.75-2.34A6.7,6.7,0,0,0,411,79a16.35,16.35,0,0,0-2.95-1.31q-1.67-.57-3.44-1.06-2.13-.64-4.29-1.39a17.63,17.63,0,0,1-3.9-1.88,9.55,9.55,0,0,1-2.84-2.84,7.66,7.66,0,0,1-1.1-4.25v-.14a9.9,9.9,0,0,1,.92-4.29A9.66,9.66,0,0,1,396,58.48a11.84,11.84,0,0,1,4-2.13,16.17,16.17,0,0,1,5-.74,22.78,22.78,0,0,1,6.88,1.1,26,26,0,0,1,6.32,2.95l-2.48,4.12a25.07,25.07,0,0,0-5.36-2.59,17,17,0,0,0-5.5-1,8.09,8.09,0,0,0-5.18,1.52,4.68,4.68,0,0,0-1.92,3.8v.14a3.44,3.44,0,0,0,.78,2.24,6.83,6.83,0,0,0,2.09,1.67,19.08,19.08,0,0,0,3,1.28q1.7.57,3.55,1.14,2.13.64,4.22,1.42a16.66,16.66,0,0,1,3.8,2,9.66,9.66,0,0,1,2.73,2.91,8,8,0,0,1,1,4.18v.14A10.14,10.14,0,0,1,417.93,87.29Z"/><path class="cls-1" d="M463.62,82a19.31,19.31,0,0,1-4,6.14,18.75,18.75,0,0,1-6.1,4.15,19.21,19.21,0,0,1-7.66,1.52,18.69,18.69,0,0,1-7.59-1.52,19.22,19.22,0,0,1-6-4.12,18.56,18.56,0,0,1-4-6.07,19.32,19.32,0,0,1-1.42-7.38,19.58,19.58,0,0,1,1.42-7.41,18.61,18.61,0,0,1,10-10.29,19.4,19.4,0,0,1,21.39,4.12,18.51,18.51,0,0,1,4,6.07,19.39,19.39,0,0,1,1.42,7.38A19.17,19.17,0,0,1,463.62,82Zm-5.18-12.9a14,14,0,0,0-2.88-4.57,13.75,13.75,0,0,0-4.33-3.08,12.79,12.79,0,0,0-5.39-1.14,13.37,13.37,0,0,0-5.46,1.1,12.2,12.2,0,0,0-4.22,3A14.49,14.49,0,0,0,433.43,69a15.82,15.82,0,0,0,0,11.15,13.92,13.92,0,0,0,2.84,4.53,13.62,13.62,0,0,0,4.29,3A12.85,12.85,0,0,0,446,88.81a13.37,13.37,0,0,0,5.46-1.1,12.73,12.73,0,0,0,4.26-3,13.8,13.8,0,0,0,2.77-4.49,15.34,15.34,0,0,0,1-5.56A15.18,15.18,0,0,0,458.45,69.06Z"/><path class="cls-1" d="M494,56.39v4.68H482.46V92.93H477V61.07h-5V56.31h5V53.12q0-6,2.87-9.15t8.2-3.12a22,22,0,0,1,3.3.21,14.15,14.15,0,0,1,2.73.71v4.75q-1.49-.42-2.7-.67a13,13,0,0,0-2.63-.25q-6.39,0-6.38,7.8v3Z"/><path class="cls-1" d="M508.36,82.5q0,3.41,1.7,4.75a7,7,0,0,0,4.47,1.35,11,11,0,0,0,5.32-1.28V92a12.26,12.26,0,0,1-3,1.17,15.26,15.26,0,0,1-3.58.39,14.33,14.33,0,0,1-4.12-.57,8.38,8.38,0,0,1-3.3-1.81A8.29,8.29,0,0,1,503.68,88a12.93,12.93,0,0,1-.78-4.75V61.07h-5.11V56.24h5.11V45.17h5.46V56.24H520v4.82H508.36Z"/><path class="cls-2" d="M126,86.92a5.84,5.84,0,0,0-3.71-1.34.5.5,0,0,0-.24,0A6.38,6.38,0,0,0,118.11,97v11.47L96.46,121V114a6.39,6.39,0,0,0,2.44-5,6.26,6.26,0,0,0-2.44-5,5.84,5.84,0,0,0-3.71-1.34.5.5,0,0,0-.24,0A6.38,6.38,0,0,0,88.58,114v20.58L126,113V97a6.39,6.39,0,0,0,2.44-5A6.26,6.26,0,0,0,126,86.92ZM96,109a3.45,3.45,0,1,1-3.43-3.43A3.47,3.47,0,0,1,96,109Zm29.53-17.07A3.45,3.45,0,1,1,122,88.5,3.47,3.47,0,0,1,125.48,91.93ZM126,0a6.43,6.43,0,0,0-6.31,5.09v0L63,37.88,0,1.5V44.74L63,81.13l55.11-31.85v25L63,106.16,0,69.78V113l37.41,21.6V114a6.4,6.4,0,0,0-3.94-11.43.5.5,0,0,0-.24,0A5.92,5.92,0,0,0,29.53,104,6.23,6.23,0,0,0,27,109a6.37,6.37,0,0,0,2.48,5V121L7.88,108.45v-25L63,115.27l63-36.39V35.64L63,72,7.88,40.17v-25L63,47l60.32-34.85a5.71,5.71,0,0,0,2.68.63A6.39,6.39,0,1,0,126,0ZM33.47,105.57a3.45,3.45,0,0,1,0,6.9,3.45,3.45,0,1,1,0-6.9ZM126,9.86a3.47,3.47,0,1,1,3.43-3.47A3.5,3.5,0,0,1,126,9.86Z"/></g></g></svg>