<?xml version="1.0" encoding="iso-8859-1"?>
<!-- Generator: Adobe Illustrator 22.1.0, SVG Export Plug-In . SVG Version: 6.00 Build 0)  -->
<svg xmlns="http://www.w3.org/2000/svg" xmlns:xlink="http://www.w3.org/1999/xlink" version="1.1" id="Layer_1_1_" x="0px" y="0px" viewBox="0 0 64 64" style="enable-background:new 0 0 64 64;" xml:space="preserve" width="512" height="512">
<linearGradient id="SVGID_1_" gradientUnits="userSpaceOnUse" x1="32.4014" y1="62.6182" x2="32.4014" y2="1">
	<stop offset="0" style="stop-color:#9F2FFF"/>
	<stop offset="1" style="stop-color:#0BB1D3"/>
</linearGradient>
<path style="fill:url(#SVGID_1_);" d="M19,53.647v8.971l5-2.5l5,2.5v-8.971c1.834-1.065,3.301-2.691,4.159-4.647H45V1H9.586L1,9.586  V49h13.841C15.699,50.956,17.166,52.582,19,53.647z M27,59.382l-3-1.5l-3,1.5v-4.843C21.948,54.837,22.955,55,24,55  s2.052-0.163,3-0.461V59.382z M24,53c-4.411,0-8-3.589-8-8s3.589-8,8-8s8,3.589,8,8S28.411,53,24,53z M9,4.414V9H4.414L9,4.414z   M3,47V11h8V3h32v44h-9.202C33.93,46.354,34,45.685,34,45c0-5.514-4.486-10-10-10s-10,4.486-10,10c0,0.685,0.07,1.354,0.202,2H3z   M27.105,38.553l1.789,0.895l-5.621,11.241l-3.981-3.981l1.414-1.414l2.019,2.019L27.105,38.553z M41,5h-6v16h6V5z M39,19h-2V7h2V19  z M33,9h-6v12h6V9z M31,19h-2v-8h2V19z M25,13h-6v8h6V13z M23,19h-2v-4h2V19z M5,23h2v2H5V23z M25,25H9v-2h16V25z M5,27h2v2H5V27z   M25,29H9v-2h16V29z M5,31h2v2H5V31z M25,33H9v-2h16V33z M55,4.131L63.803,10L55,15.869V13h-8v-2h10v1.131L60.197,10L57,7.869V9h-6  V7h4V4.131z M47,9V7h2v2H47z M55,19.131L63.803,25L55,30.869V28h-8v-2h10v1.131L60.197,25L57,22.869V24H47v-2h8V19.131z M55,34.132  L63.803,40L55,45.868V43h-4v-2h6v1.132L60.197,40L57,37.868V39H47v-2h8V34.132z M49,43h-2v-2h2V43z"/>
</svg>
